<svg width="68" height="12" viewBox="0 0 68 12" fill="none" xmlns="http://www.w3.org/2000/svg">
<rect opacity="0.35" x="43.5" y="0.833344" width="21" height="10.3333" rx="2.16667" stroke="white"/>
<path opacity="0.4" d="M66 4.00002V8.00002C66.8047 7.66124 67.328 6.87315 67.328 6.00002C67.328 5.12688 66.8047 4.33879 66 4.00002Z" fill="white"/>
<rect x="45" y="2.33334" width="18" height="7.33333" rx="1.33333" fill="white"/>
<path fill-rule="evenodd" clip-rule="evenodd" d="M30.3305 2.60802C32.5463 2.60811 34.6775 3.45955 36.2835 4.98635C36.4044 5.10422 36.5977 5.10274 36.7168 4.98302L37.8728 3.81635C37.9331 3.75563 37.9667 3.67338 37.9662 3.58779C37.9657 3.50221 37.9311 3.42036 37.8701 3.36035C33.655 -0.679198 27.0052 -0.679198 22.7901 3.36035C22.7291 3.42032 22.6944 3.50215 22.6939 3.58773C22.6933 3.67331 22.7269 3.75558 22.7871 3.81635L23.9435 4.98302C24.0625 5.10292 24.2559 5.10441 24.3768 4.98635C25.9829 3.45945 28.1143 2.60801 30.3305 2.60802ZM30.3305 6.40368C31.5479 6.40361 32.722 6.85614 33.6245 7.67335C33.7465 7.78933 33.9388 7.78682 34.0578 7.66768L35.2125 6.50102C35.2733 6.43982 35.307 6.3568 35.3061 6.27054C35.3052 6.18427 35.2698 6.10196 35.2078 6.04202C32.4596 3.48563 28.2037 3.48563 25.4555 6.04202C25.3934 6.10196 25.358 6.18432 25.3571 6.27061C25.3563 6.3569 25.3902 6.43991 25.4511 6.50102L26.6055 7.66768C26.7244 7.78682 26.9167 7.78933 27.0388 7.67335C27.9407 6.85668 29.1138 6.40419 30.3305 6.40368ZM32.6434 8.9575C32.6452 9.04401 32.6112 9.12741 32.5495 9.18802L30.5521 11.2037C30.4936 11.2629 30.4137 11.2963 30.3305 11.2963C30.2472 11.2963 30.1673 11.2629 30.1088 11.2037L28.1111 9.18802C28.0494 9.12737 28.0155 9.04394 28.0173 8.95743C28.0191 8.87092 28.0566 8.789 28.1208 8.73102C29.3964 7.65213 31.2645 7.65213 32.5401 8.73102C32.6043 8.78905 32.6417 8.87099 32.6434 8.9575Z" fill="white"/>
<path fill-rule="evenodd" clip-rule="evenodd" d="M16.6665 0.666656H15.6665C15.1142 0.666656 14.6665 1.11437 14.6665 1.66666V10.3333C14.6665 10.8856 15.1142 11.3333 15.6665 11.3333H16.6665C17.2188 11.3333 17.6665 10.8856 17.6665 10.3333V1.66666C17.6665 1.11437 17.2188 0.666656 16.6665 0.666656ZM10.9998 2.99999H11.9998C12.5521 2.99999 12.9998 3.44771 12.9998 3.99999V10.3333C12.9998 10.8856 12.5521 11.3333 11.9998 11.3333H10.9998C10.4476 11.3333 9.99984 10.8856 9.99984 10.3333V3.99999C9.99984 3.44771 10.4476 2.99999 10.9998 2.99999ZM7.33317 5.33332H6.33317C5.78089 5.33332 5.33317 5.78104 5.33317 6.33332V10.3333C5.33317 10.8856 5.78089 11.3333 6.33317 11.3333H7.33317C7.88546 11.3333 8.33317 10.8856 8.33317 10.3333V6.33332C8.33317 5.78104 7.88546 5.33332 7.33317 5.33332ZM2.6665 7.33332H1.6665C1.11422 7.33332 0.666504 7.78104 0.666504 8.33332V10.3333C0.666504 10.8856 1.11422 11.3333 1.6665 11.3333H2.6665C3.21879 11.3333 3.6665 10.8856 3.6665 10.3333V8.33332C3.6665 7.78104 3.21879 7.33332 2.6665 7.33332Z" fill="white"/>
</svg>
