<svg width="54" height="21" viewBox="0 0 54 21" fill="none" xmlns="http://www.w3.org/2000/svg">
<path d="M17.6378 16.1982C20.1466 16.1982 21.6505 14.2432 21.6505 10.9551C21.6505 7.29785 19.6886 5.93066 17.6652 5.93066C15.5323 5.93066 13.9806 7.37305 13.9806 9.38281C13.9806 11.29 15.4093 12.6162 17.255 12.6162C18.5333 12.6162 19.545 11.9736 19.9279 11.0166H19.9552C19.9552 13.3135 19.2032 14.7695 17.6515 14.7695C16.7491 14.7695 16.0861 14.3594 15.84 13.5801H14.09C14.3634 15.1387 15.7921 16.1982 17.6378 16.1982ZM17.6652 11.249C16.5441 11.249 15.7101 10.4424 15.7101 9.31445C15.7101 8.23438 16.5851 7.37988 17.6857 7.37988C18.7999 7.37988 19.6613 8.24121 19.6613 9.34863C19.6613 10.4492 18.8068 11.249 17.6652 11.249Z" fill="black"/>
<path d="M23.8451 14.5986C24.392 14.5986 24.8227 14.168 24.8227 13.6143C24.8227 13.0674 24.392 12.6299 23.8451 12.6299C23.2914 12.6299 22.8607 13.0674 22.8607 13.6143C22.8607 14.168 23.2914 14.5986 23.8451 14.5986ZM23.8451 9.49219C24.392 9.49219 24.8227 9.05469 24.8227 8.50781C24.8227 7.96094 24.392 7.52344 23.8451 7.52344C23.2914 7.52344 22.8607 7.96094 22.8607 8.50781C22.8607 9.05469 23.2914 9.49219 23.8451 9.49219Z" fill="black"/>
<path d="M30.8796 16H32.5612V14.1064H33.9011V12.6572H32.5612V6.13574H30.0524C27.9128 9.24609 26.8122 10.9961 25.9577 12.6025V14.1064H30.8796V16ZM27.5436 12.6504C28.3298 11.2148 29.2868 9.73145 30.8796 7.44824H30.9069V12.6982H27.5436V12.6504Z" fill="black"/>
<path d="M37.2373 16H38.9668V6.13574H37.2236L34.6465 7.94727V9.56738L37.1963 7.81738H37.2373V16Z" fill="black"/>
</svg>
