<svg width="54" height="21" viewBox="0 0 54 21" fill="none" xmlns="http://www.w3.org/2000/svg">
<path d="M17.6172 16.1982C20.1465 16.1982 21.6436 14.2432 21.6436 10.9551C21.6436 9.72461 21.4043 8.69238 20.9395 7.88574C20.2832 6.62793 19.1074 5.93066 17.6582 5.93066C15.5254 5.93066 13.9736 7.37305 13.9736 9.36914C13.9736 11.2422 15.375 12.6299 17.248 12.6299C18.5264 12.6299 19.5381 11.9805 19.9209 11.0166H19.9277H19.9346C19.9414 11.0166 19.9482 11.0166 19.9482 11.0166C19.9756 13.4023 19.1006 14.7695 17.6445 14.7695C16.7832 14.7695 16.0791 14.2773 15.8604 13.5322H14.1104C14.3906 15.1182 15.8057 16.1982 17.6172 16.1982ZM17.665 11.249C16.5439 11.249 15.71 10.4287 15.71 9.31445C15.71 8.23438 16.5781 7.37988 17.6787 7.37988C18.7861 7.37988 19.6475 8.24121 19.6475 9.3418C19.6475 10.4287 18.793 11.249 17.665 11.249Z" fill="white"/>
<path d="M23.8382 14.5576C24.385 14.5576 24.8157 14.127 24.8157 13.5732C24.8157 13.0264 24.385 12.5889 23.8382 12.5889C23.2845 12.5889 22.8538 13.0264 22.8538 13.5732C22.8538 14.127 23.2845 14.5576 23.8382 14.5576ZM23.8382 9.62207C24.385 9.62207 24.8157 9.18457 24.8157 8.6377C24.8157 8.09082 24.385 7.65332 23.8382 7.65332C23.2845 7.65332 22.8538 8.09082 22.8538 8.6377C22.8538 9.18457 23.2845 9.62207 23.8382 9.62207Z" fill="white"/>
<path d="M30.8726 16H32.5543V14.1338H33.8804V12.6914H32.5543V6.13574H30.0455C27.9058 9.24609 26.8052 11.0029 25.9507 12.6162V14.1338H30.8726V16ZM27.5504 12.6846C28.3365 11.208 29.2798 9.75195 30.8726 7.44141H30.9V12.7324H27.5504V12.6846Z" fill="white"/>
<path d="M37.244 16H38.9735V6.13574H37.2303L34.6532 7.94727V9.6084L37.203 7.81738H37.244V16Z" fill="white"/>
</svg>
